# File created by Blade
# Date/Time:  Tue Apr 07 20:17:56 2015
# Frame Rate: 120.000 fps
#------------------------------------------------------
:FULLY-SPECIFIED
:DEGREES
1077
root 4.993614 34.376610 -9.163737 23.217663 -20.953963 -47.183700
Spine 0.307196 6.998873 27.343391
Head 4.904216 9.790904 16.755693
LeftShoulder -26.357980 45.395571 14.451234
LeftArm 54.938726 -48.580838 -81.404215
LeftForeArm -0.203998 0.000000 18.712060
LeftHand 13.363539 -0.000000 11.436409
LeftHandThumb1 -26.253704 0.000000 33.147579
RightShoulder -9.598489 -12.723756 -12.204998
RightArm 3.020749 5.693494 71.837174
RightForeArm 24.168205 -0.000000 40.166051
RightHand 9.526906 -0.000000 15.025554
RightHandThumb1 -24.326973 -0.000000 -32.862282
LeftUpLeg -7.773198 9.044109 37.464723
LeftLeg 17.788493 -0.000000 -0.000000
LeftFoot -13.637993 31.242494 -10.961068
LeftToeBase -14.363411 -0.000000 0.000000
RightUpLeg -88.111618 -43.842347 -11.944378
RightLeg 130.451103 -0.000000 -0.000000
RightFoot 43.721016 6.281835 -1.427576
RightToeBase 36.189396 -0.000000 -0.000000
1078
root 4.995482 34.357799 -9.196043 23.224886 -21.109972 -47.326544
Spine 0.443438 7.174852 27.340781
Head 4.873714 9.802354 17.122816
LeftShoulder -26.347475 45.417292 14.609253
LeftArm 54.983442 -48.699508 -81.300861
LeftForeArm -0.391070 -0.000000 18.310983
LeftHand 13.352244 -0.000000 11.267544
LeftHandThumb1 -26.253704 0.000000 33.147579
RightShoulder -9.380442 -12.489572 -12.132324
RightArm 3.276288 6.111415 71.532214
RightForeArm 23.581489 -0.000000 39.759753
RightHand 9.473629 0.000000 14.768024
RightHandThumb1 -24.326973 -0.000000 -32.862282
LeftUpLeg -7.786628 8.959328 37.594464
LeftLeg 18.106715 -0.000000 -0.000000
LeftFoot -13.820857 31.297374 -10.829438
LeftToeBase -14.273808 -0.000000 0.000000
RightUpLeg -88.883691 -43.710229 -11.039530
RightLeg 129.497091 -0.000000 -0.000000
RightFoot 43.744162 5.984703 -1.268016
RightToeBase 36.043588 -0.000000 -0.000000
1079
root 4.997093 34.338074 -9.229026 23.190388 -21.243793 -47.388230
Spine 0.562366 7.358099 27.247794
Head 4.842399 9.749182 17.543672
LeftShoulder -26.234121 45.453894 14.853463
LeftArm 55.054466 -48.834925 -81.227907
LeftForeArm -0.601018 -0.000000 17.904191
LeftHand 13.377937 0.000000 11.226138
LeftHandThumb1 -26.253704 0.000000 33.147579
RightShoulder -9.244774 -12.305823 -12.024552
RightArm 3.562641 6.619178 71.265597
RightForeArm 22.963889 -0.000000 39.380892
RightHand 9.488838 -0.000000 14.352073
RightHandThumb1 -24.326973 -0.000000 -32.862282
LeftUpLeg -7.811441 8.843204 37.663102
LeftLeg 18.404074 -0.000000 -0.000000
LeftFoot -14.015246 31.295318 -10.776701
LeftToeBase -14.309481 -0.000000 0.000000
RightUpLeg -89.606695 -43.637647 -10.256483
RightLeg 128.504949 -0.000000 -0.000000
RightFoot 43.779450 5.631601 -1.155612
RightToeBase 36.041464 -0.000000 -0.000000
1080
root 5.001098 34.317057 -9.263617 23.124220 -21.381790 -47.370615
Spine 0.685900 7.519094 27.064645
Head 4.798565 9.649767 17.979098
LeftShoulder -26.120356 45.445356 15.104238
LeftArm 55.086123 -48.985754 -81.115195
LeftForeArm -0.862677 -0.000000 17.560351
LeftHand 13.329957 0.000000 11.024316
LeftHandThumb1 -26.253704 0.000000 33.147579
RightShoulder -9.165431 -12.029453 -11.925215
RightArm 3.794283 7.157842 70.998434
RightForeArm 22.604417 -0.000000 39.001848
RightHand 9.312546 -0.000000 14.235752
RightHandThumb1 -24.326973 -0.000000 -32.862282
LeftUpLeg -7.840065 8.739953 37.650690
LeftLeg 18.663254 -0.000000 -0.000000
LeftFoot -14.231010 31.320018 -10.754884
LeftToeBase -14.523110 -0.000000 0.000000
RightUpLeg -90.315926 -43.591944 -9.577539
RightLeg 127.467248 -0.000000 -0.000000
RightFoot 43.861821 5.152091 -1.046364
RightToeBase 35.995691 -0.000000 -0.000000
1081
root 5.001778 34.296642 -9.294717 22.989956 -21.468192 -47.326656
Spine 0.847613 7.591123 26.885027
Head 4.726385 9.536905 18.380987
LeftShoulder -26.047413 45.397566 15.305637
LeftArm 55.160618 -49.167633 -81.035241
LeftForeArm -1.005773 -0.000000 17.235572
LeftHand 13.281256 -0.000000 10.793530
LeftHandThumb1 -26.253704 0.000000 33.147579
RightShoulder -9.129269 -11.720522 -11.852735
RightArm 3.999951 7.673909 70.772063
RightForeArm 22.107456 -0.000000 38.696016
RightHand 9.105279 0.000000 14.033717
RightHandThumb1 -24.326973 -0.000000 -32.862282
LeftUpLeg -7.838368 8.605685 37.635120
LeftLeg 18.893711 -0.000000 -0.000000
LeftFoot -14.488978 31.258450 -10.815134
LeftToeBase -14.510160 -0.000000 0.000000
RightUpLeg -90.791592 -43.619230 -9.136983
RightLeg 126.438288 -0.000000 -0.000000
RightFoot 43.730526 5.083062 -0.998208
RightToeBase 35.988139 -0.000000 -0.000000
1082
root 5.006457 34.272917 -9.322332 22.805278 -21.545465 -47.201884
Spine 0.984807 7.674225 26.646086
Head 4.717866 9.386661 18.757715
LeftShoulder -25.908631 45.445404 15.527623
LeftArm 55.253622 -49.301955 -80.935780
LeftForeArm -1.273051 0.000000 16.964488
LeftHand 13.274105 -0.000000 10.577731
LeftHandThumb1 -26.253704 0.000000 33.147579
RightShoulder -9.117264 -11.387977 -11.825059
RightArm 4.119416 8.187028 70.568855
RightForeArm 21.596515 -0.000000 38.394556
RightHand 8.900601 -0.000000 13.699889
RightHandThumb1 -24.326973 -0.000000 -32.862282
LeftUpLeg -7.831669 8.429900 37.532531
LeftLeg 19.093992 -0.000000 -0.000000
LeftFoot -14.806702 31.187537 -10.933720
LeftToeBase -14.321524 -0.000000 0.000000
RightUpLeg -91.255196 -43.701481 -8.782968
RightLeg 125.341309 -0.000000 -0.000000
RightFoot 43.770441 4.788541 -0.968813
RightToeBase 36.000967 -0.000000 -0.000000
1083
root 5.009552 34.250041 -9.353463 22.653764 -21.576133 -47.120304
Spine 1.093790 7.696678 26.479330
Head 4.741885 9.244668 19.044438
LeftShoulder -25.777208 45.442281 15.722764
LeftArm 55.265095 -49.456948 -80.755476
LeftForeArm -1.548406 0.000000 16.678437
LeftHand 13.267766 0.000000 10.571431
LeftHandThumb1 -26.253704 0.000000 33.147579
RightShoulder -9.065525 -11.102546 -11.869719
RightArm 4.263689 8.898991 70.489138
RightForeArm 20.973096 -0.000000 38.142770
RightHand 8.522890 -0.000000 13.481620
RightHandThumb1 -24.326973 -0.000000 -32.862282
LeftUpLeg -7.846402 8.239948 37.480514
LeftLeg 19.276989 -0.000000 -0.000000
LeftFoot -15.173449 31.123763 -11.013848
LeftToeBase -14.020076 -0.000000 0.000000
RightUpLeg -91.601733 -43.832556 -8.508074
RightLeg 124.203382 -0.000000 -0.000000
RightFoot 43.752692 4.702780 -0.802968
RightToeBase 36.053081 -0.000000 -0.000000
1084
root 5.014313 34.224573 -9.379248 22.498561 -21.624386 -47.026221
Spine 1.187811 7.738968 26.315776
Head 4.816458 9.072156 19.271873
LeftShoulder -25.648679 45.392347 15.910219
LeftArm 55.205605 -49.567188 -80.481442
LeftForeArm -1.759932 0.000000 16.422337
LeftHand 13.303508 -0.000000 10.549910
LeftHandThumb1 -26.253704 0.000000 33.147579
RightShoulder -9.031674 -10.845410 -11.985069
RightArm 4.361109 9.307638 70.336465
RightForeArm 20.771771 -0.000000 37.925063
RightHand 8.127734 -0.000000 13.097904
RightHandThumb1 -24.326973 -0.000000 -32.862282
LeftUpLeg -7.805301 8.071412 37.390560
LeftLeg 19.384451 -0.000000 -0.000000
LeftFoot -15.485287 31.163336 -10.953947
LeftToeBase -13.693580 -0.000000 0.000000
RightUpLeg -91.954255 -43.969568 -8.266717
RightLeg 123.059689 -0.000000 -0.000000
RightFoot 43.712889 4.602782 -0.781829
RightToeBase 36.102160 -0.000000 -0.000000
1085
root 5.015036 34.199255 -9.397601 22.352465 -21.678281 -47.013846
Spine 1.276161 7.759653 26.264985
Head 5.003983 8.885969 19.408413
LeftShoulder -25.579441 45.406065 16.011912
LeftArm 55.177989 -49.668788 -80.234890
LeftForeArm -1.980403 -0.000000 16.219826
LeftHand 13.276739 -0.000000 10.574617
LeftHandThumb1 -26.253704 0.000000 33.147579
RightShoulder -8.936649 -10.647375 -12.200464
RightArm 4.421731 9.728113 70.234940
RightForeArm 20.491165 -0.000000 37.752830
RightHand 7.731945 -0.000000 12.659167
RightHandThumb1 -24.326973 -0.000000 -32.862282
LeftUpLeg -7.667934 7.937139 37.352465
LeftLeg 19.417985 -0.000000 -0.000000
LeftFoot -15.735741 31.313929 -10.800786
LeftToeBase -13.615769 -0.000000 0.000000
RightUpLeg -92.264216 -44.086979 -7.986785
RightLeg 121.915029 -0.000000 -0.000000
RightFoot 43.620151 4.452920 -0.817670
RightToeBase 36.062321 -0.000000 -0.000000
1086
root 5.022077 34.175095 -9.416298 22.262474 -21.722250 -46.982605
Spine 1.278324 7.799509 26.212645
Head 5.229471 8.752058 19.516818
LeftShoulder -25.496741 45.428973 16.117231
LeftArm 55.172438 -49.749917 -80.063622
LeftForeArm -2.112333 -0.000000 16.087747
LeftHand 13.282996 -0.000000 10.666819
LeftHandThumb1 -26.253704 0.000000 33.147579
RightShoulder -8.820888 -10.505889 -12.410624
RightArm 4.486247 10.275093 70.127179
RightForeArm 19.992104 -0.000000 37.612700
RightHand 7.271408 0.000000 12.185683
RightHandThumb1 -24.326973 -0.000000 -32.862282
LeftUpLeg -7.608022 7.848313 37.289699
LeftLeg 19.469948 -0.000000 -0.000000
LeftFoot -15.922864 31.410430 -10.688999
LeftToeBase -13.612423 -0.000000 0.000000
RightUpLeg -92.582195 -44.222844 -7.750451
RightLeg 120.722152 -0.000000 -0.000000
RightFoot 43.512829 4.438884 -0.883243
RightToeBase 36.054784 -0.000000 -0.000000
